HIERARCHY
ROOT Hips
{
	OFFSET 0.00000 0.00000 0.00000
	CHANNELS 6 Xposition Yposition Zposition Zrotation Yrotation Xrotation 
	JOINT LHipJoint
	{
		OFFSET 0 0 0
		CHANNELS 3 Zrotation Yrotation Xrotation
		JOINT LeftUpLeg
		{
			OFFSET 1.17584 -1.63585 1.00361
			CHANNELS 3 Zrotation Yrotation Xrotation
			JOINT LeftLeg
			{
				OFFSET 2.23889 -6.15131 0.00000
				CHANNELS 3 Zrotation Yrotation Xrotation
				JOINT LeftFoot
				{
					OFFSET 2.65161 -7.28525 0.00000
					CHANNELS 3 Zrotation Yrotation Xrotation
					JOINT LeftToeBase
					{
						OFFSET 0.24898 -0.68407 1.57235
						CHANNELS 3 Zrotation Yrotation Xrotation
						End Site
						{
							OFFSET 0.00000 -0.00000 0.85838
						}
					}
				}
			}
		}
	}
	JOINT RHipJoint
	{
		OFFSET 0 0 0
		CHANNELS 3 Zrotation Yrotation Xrotation
		JOINT RightUpLeg
		{
			OFFSET -1.15592 -1.63585 1.00361
			CHANNELS 3 Zrotation Yrotation Xrotation
			JOINT RightLeg
			{
				OFFSET -2.34071 -6.43104 0.00000
				CHANNELS 3 Zrotation Yrotation Xrotation
				JOINT RightFoot
				{
					OFFSET -2.59113 -7.11908 0.00000
					CHANNELS 3 Zrotation Yrotation Xrotation
					JOINT RightToeBase
					{
						OFFSET -0.17867 -0.49089 1.70981
						CHANNELS 3 Zrotation Yrotation Xrotation
						End Site
						{
							OFFSET -0.00000 -0.00000 0.89861
						}
					}
				}
			}
		}
	}
	JOINT LowerBack
	{
		OFFSET 0 0 0
		CHANNELS 3 Zrotation Yrotation Xrotation
		JOINT Spine
		{
			OFFSET -0.02255 1.90764 -0.16605
			CHANNELS 3 Zrotation Yrotation Xrotation
			JOINT Spine1
			{
				OFFSET -0.00365 1.92150 -0.04898
				CHANNELS 3 Zrotation Yrotation Xrotation
				JOINT Neck
				{
					OFFSET 0 0 0
					CHANNELS 3 Zrotation Yrotation Xrotation
					JOINT Neck1
					{
						OFFSET 0.00372 1.59170 0.08694
						CHANNELS 3 Zrotation Yrotation Xrotation
						JOINT Head
						{
							OFFSET 0.12558 1.58643 -0.08078
							CHANNELS 3 Zrotation Yrotation Xrotation
							End Site
							{
								OFFSET 0.04211 1.60835 -0.03803
							}
						}
					}
				}
				JOINT LeftShoulder
				{
					OFFSET 0 0 0
					CHANNELS 3 Zrotation Yrotation Xrotation
					JOINT LeftArm
					{
						OFFSET 3.69324 0.96316 0.19077
						CHANNELS 3 Zrotation Yrotation Xrotation
						JOINT LeftForeArm
						{
							OFFSET 4.87796 -0.00000 -0.00000
							CHANNELS 3 Zrotation Yrotation Xrotation
							JOINT LeftHand
							{
								OFFSET 3.23169 -0.00000 0.00000
								CHANNELS 3 Zrotation Yrotation Xrotation
								JOINT LeftFingerBase
								{
									OFFSET 0 0 0
									CHANNELS 3 Zrotation Yrotation Xrotation
									JOINT LeftHandIndex1
									{
										OFFSET 0.73132 -0.00000 0.00000
										CHANNELS 3 Zrotation Yrotation Xrotation
										End Site
										{
											OFFSET 0.58961 -0.00000 0.00000
										}
									}
								}
								JOINT LThumb
								{
									OFFSET 0 0 0
									CHANNELS 3 Zrotation Yrotation Xrotation
									End Site
									{
										OFFSET 0.59861 -0.00000 0.59861
									}
								}
							}
						}
					}
				}
				JOINT RightShoulder
				{
					OFFSET 0 0 0
					CHANNELS 3 Zrotation Yrotation Xrotation
					JOINT RightArm
					{
						OFFSET -3.66103 0.75145 0.08281
						CHANNELS 3 Zrotation Yrotation Xrotation
						JOINT RightForeArm
						{
							OFFSET -4.91430 -0.00000 0.00000
							CHANNELS 3 Zrotation Yrotation Xrotation
							JOINT RightHand
							{
								OFFSET -3.29093 -0.00000 0.00000
								CHANNELS 3 Zrotation Yrotation Xrotation
								JOINT RightFingerBase
								{
									OFFSET 0 0 0
									CHANNELS 3 Zrotation Yrotation Xrotation
									JOINT RightHandIndex1
									{
										OFFSET -0.54512 -0.00000 0.00000
										CHANNELS 3 Zrotation Yrotation Xrotation
										End Site
										{
											OFFSET -0.43949 -0.00000 0.00000
										}
									}
								}
								JOINT RThumb
								{
									OFFSET 0 0 0
									CHANNELS 3 Zrotation Yrotation Xrotation
									End Site
									{
										OFFSET -0.44620 -0.00000 0.44620
									}
								}
							}
						}
					}
				}
			}
		}
	}
}
MOTION
Frames: 8
Frame Time: .0083333
12.968 15.9998 1.3915 0 0 0 0 0 0 -21 0 0 0 0 0 0 0 0 0 0 0 0 0 0 21 0 0 0 0 0 0 0 0 0 0 0 0 0 0 0 0 0 0 0 0 0 0 -16 0 0 21 0 0 11 0 0 0 -8 0 0 0 0 0 0 0 0 0 0 0 0 0 0 0 0 0 0 0 0 8 0 0 0 0 0 0 0 0 0 0 0 0 0 0 0 0 0
12.9680 15.9998 1.3915 129.7820 -88.5406 -131.6820 0.0000 0.0000 0.0000 -11.4273 -4.4967 -13.9368 4.7878 13.1407 39.8976 2.8425 7.8362 -35.3139 1.5662 -7.8972 -22.4022 0.0000 0.0000 0.0000 12.9162 10.1393 -9.8101 -5.3516 -13.7692 42.3206 -1.9982 -10.9156 -32.4768 -0.0398 1.2877 -3.5406 1.1739 0.9117 -6.9918 -1.9816 1.2170 3.7607 -2.5848 0.7059 7.9597 -1.9134 -1.0808 -4.8120 5.3119 -1.8070 7.8482 2.0140 -0.7703 3.4825 0.0000 -0.0000 0.0000 -79.5893 -2.1470 36.8537 38.9548 -47.4383 -17.6655 -0.0000 -0.0000 14.7232 41.6166 -18.8545 -16.0181 -7.1250 0.0000 -0.0000 8.4576 5.6547 -7.6690 0.0000 -0.0000 0.0000 85.3838 -0.5051 33.9149 -34.2637 44.2791 -14.2968 0.0000 0.0000 13.0137 -37.2972 -23.0619 16.6143 7.1250 -0.0000 -0.0000 -9.4205 -57.8868 2.9887
12.9630 15.9967 1.4019 128.9210 -88.4658 -130.9170 0.0000 0.0000 0.0000 -11.5890 -4.5377 -13.7566 4.7853 13.1378 39.8866 2.8781 8.0245 -35.6039 1.6941 -8.1976 -23.3159 0.0000 0.0000 0.0000 12.8047 10.0816 -9.7183 -5.3572 -13.7751 42.3439 -1.9887 -10.9310 -32.4314 -0.0556 1.5217 -4.1855 0.6689 0.5597 -6.9649 -1.5836 0.7692 4.0292 -1.9424 0.4501 8.1920 -2.8093 -0.7327 -5.9314 5.1544 -1.2264 8.0430 2.1613 -0.4942 3.7545 0.0000 -0.0000 0.0000 -80.6352 -2.4443 35.6042 39.0091 -47.4717 -17.7055 -0.0000 -0.0000 13.3385 39.1199 -19.0422 -14.8602 -7.1250 0.0000 -0.0000 6.8837 6.1416 -6.1533 0.0000 -0.0000 0.0000 84.6305 0.3555 34.7490 -33.7546 43.9021 -13.9426 0.0000 0.0000 13.1241 -37.1531 -22.9407 16.4548 7.1250 -0.0000 -0.0000 -9.2550 -57.7102 2.8962
12.9550 15.9951 1.4160 123.7860 -88.2926 -125.7660 0.0000 0.0000 0.0000 -11.9187 -4.5846 -13.7100 4.7785 13.1299 39.8567 2.8861 8.0877 -35.6803 1.6937 -8.1965 -23.3126 0.0000 0.0000 0.0000 12.4321 9.8643 -9.8086 -5.3626 -13.7808 42.3664 -1.9671 -10.9013 -32.2821 -0.0726 1.7379 -4.7820 1.3136 1.0356 -6.9906 -2.4048 1.3948 3.5755 -3.0872 0.8087 7.7872 -1.6921 -1.0478 -4.3157 5.1966 -1.7572 7.5101 1.9316 -0.7538 3.2616 0.0000 -0.0000 0.0000 -79.3326 -1.6635 36.7627 39.2687 -47.6306 -17.8970 -0.0000 -0.0000 11.8814 37.2854 -19.3004 -14.1255 -7.1250 0.0000 -0.0000 5.6971 6.3212 -5.0609 0.0000 -0.0000 0.0000 86.1918 -0.8668 33.4331 -33.7285 43.8826 -13.9246 0.0000 0.0000 13.5400 -37.1873 -22.9823 16.5008 7.1250 -0.0000 -0.0000 -9.2933 -57.7670 2.9211
12.9468 15.9956 1.4227 123.8580 -88.2133 -125.8140 0.0000 0.0000 0.0000 -12.0075 -4.4600 -13.7373 4.7754 13.1264 39.8433 2.8797 8.1807 -35.6970 1.7011 -8.2135 -23.3644 0.0000 0.0000 0.0000 12.3724 10.0418 -9.7304 -5.3649 -13.7833 42.3763 -1.9910 -10.9152 -32.4335 -0.0664 1.6622 -4.5731 0.8514 0.7900 -7.0747 -2.0905 1.0934 3.7565 -2.5350 0.6308 7.9920 -2.2735 -0.8387 -5.0356 4.9547 -1.3878 7.4189 1.9737 -0.5820 3.3579 0.0000 0.0000 0.0000 -80.1649 -1.9110 35.6506 39.4018 -47.7114 -17.9954 -0.0000 -0.0000 11.0060 35.5030 -19.7170 -13.5323 -7.1250 0.0000 -0.0000 4.5127 6.2811 -4.0047 0.0000 0.0000 0.0000 85.5337 -0.4126 34.1750 -33.5688 43.7627 -13.8139 0.0000 0.0000 13.2560 -37.4024 -22.8868 16.5610 7.1250 -0.0000 -0.0000 -9.5577 -57.7105 2.9921
12.9406 15.9954 1.4310 123.1800 -88.1600 -125.1380 0.0000 0.0000 0.0000 -12.1041 -4.4151 -13.7217 4.7734 13.1240 39.8344 2.8844 8.2320 -35.7496 1.7149 -8.2452 -23.4613 0.0000 0.0000 0.0000 12.3001 10.1092 -9.6730 -5.3659 -13.7843 42.3803 -1.9897 -10.9916 -32.4800 -0.0727 1.7389 -4.7847 0.8204 0.7944 -7.0934 -2.1467 1.1059 3.7288 -2.5751 0.6365 7.9744 -2.2693 -0.7886 -5.0195 4.8230 -1.2995 7.2331 1.9302 -0.5433 3.2846 0.0000 -0.0000 0.0000 -80.2596 -1.8286 35.3550 39.5544 -47.8037 -18.1084 -0.0000 -0.0000 9.9895 33.7234 -19.9354 -12.8217 -7.1250 0.0000 -0.0000 3.3628 6.4532 -2.9688 0.0000 -0.0000 0.0000 85.6571 -0.4705 34.1739 -33.4065 43.6401 -13.7018 0.0000 0.0000 13.2649 -37.5303 -22.8132 16.5857 7.1250 -0.0000 -0.0000 -9.7155 -57.6573 3.0297
12.9355 15.9955 1.4384 122.7000 -88.1470 -124.6540 0.0000 0.0000 0.0000 -12.1490 -4.3775 -13.7311 4.7758 13.1267 39.8447 2.8866 8.2499 -35.7710 1.7181 -8.2524 -23.4833 0.0000 0.0000 0.0000 12.2875 10.2136 -9.5980 -5.3633 -13.7816 42.3695 -1.9833 -11.1312 -32.5408 -0.0791 1.8143 -4.9929 0.8323 0.8176 -7.1048 -2.2103 1.1397 3.6875 -2.6442 0.6549 7.9404 -2.1817 -0.7675 -4.9065 4.6390 -1.2533 7.0051 1.8514 -0.5265 3.1783 -0.0000 -0.0000 0.0000 -80.3089 -1.7238 35.1397 39.6853 -47.8823 -18.2055 -0.0000 -0.0000 9.2142 32.2844 -20.1002 -12.2502 -7.1250 0.0000 -0.0000 2.4331 6.5911 -2.1397 -0.0000 -0.0000 0.0000 85.8188 -0.5694 34.1163 -33.2746 43.5400 -13.6108 0.0000 0.0000 13.2631 -37.6653 -22.7577 16.6259 7.1250 -0.0000 -0.0000 -9.8807 -57.6267 3.0745
12.9315 15.9956 1.4450 122.1780 -88.1719 -124.1330 0.0000 0.0000 0.0000 -12.1503 -4.3453 -13.7532 4.7809 13.1327 39.8672 2.8853 8.2401 -35.7589 1.7206 -8.2581 -23.5009 0.0000 0.0000 0.0000 12.3272 10.3460 -9.5030 -5.3593 -13.7773 42.3527 -1.9760 -11.3090 -32.6240 -0.0839 1.8688 -5.1433 0.8330 0.8212 -7.1140 -2.2348 1.1460 3.6696 -2.6695 0.6585 7.9275 -2.1200 -0.7370 -4.8576 4.4360 -1.1919 6.8141 1.7727 -0.5022 3.0970 0.0000 -0.0000 0.0000 -80.4094 -1.6393 34.9166 39.7833 -47.9410 -18.2782 -0.0000 -0.0000 8.7181 31.2483 -20.1873 -11.8264 -7.1250 0.0000 -0.0000 1.7675 6.7180 -1.5494 0.0000 -0.0000 0.0000 85.9281 -0.6173 34.0836 -33.1529 43.4473 -13.5271 0.0000 0.0000 13.2661 -37.7751 -22.7185 16.6625 7.1250 -0.0000 -0.0000 -10.0147 -57.6090 3.1125
